<svg xmlns="http://www.w3.org/2000/svg" viewBox="0 0 39 53" style="enable-background:new 0 0 39 53;" xml:space="preserve"><g><path d="M34.66 13.7c-1.46 0-2.55-.85-3.28-2.56a5.94 5.94 0 0 0-1.78-2.67A10 10 0 0 0 26 8.1q-5 0-11 7.58Q6.84 25.88 6.84 35a11 11 0 0 0 2.83 7.58 9 9 0 0 0 7 3.28 15.53 15.53 0 0 0 7.08-1.8 54 54 0 0 0 6.09-4 6 6 0 0 1 2.94-1.44 3.16 3.16 0 0 1 2.46 1.11 3.66 3.66 0 0 1 1 2.48 3.5 3.5 0 0 1-1.3 2.7q-9 8-18.25 8a15.51 15.51 0 0 1-12-5.43A18.06 18.06 0 0 1 0 35q0-11.59 9.7-23.76Q17.8 1.08 26 1.09a27.13 27.13 0 0 1 3 .15 11.36 11.36 0 0 1 2.36.5A3.64 3.64 0 0 1 34.51 0q2.37 0 3 3.1A35.42 35.42 0 0 1 38 9.9a4.17 4.17 0 0 1-.75 2.47 3 3 0 0 1-2.63 1.33z" fill="#FFFFFF"/></g></svg>